<svg xmlns="http://www.w3.org/2000/svg" width="19.464" height="19.464" viewBox="0 0 19.464 19.464"><defs><style>.a{fill:none;}.b{fill:#fff;}</style></defs><path class="a" d="M0,0H19.464V19.464H0Z"/><path class="b" d="M9.921,7.488a.813.813,0,0,0,.811-.811V5.055h1.622a.811.811,0,1,0,0-1.622H10.732V1.811a.811.811,0,1,0-1.622,0V3.433H7.488a.811.811,0,0,0,0,1.622H9.11V6.677A.813.813,0,0,0,9.921,7.488Zm-4.055,7.3a1.622,1.622,0,1,0,1.622,1.622A1.62,1.62,0,0,0,5.866,14.787Zm8.11,0A1.622,1.622,0,1,0,15.6,16.409,1.62,1.62,0,0,0,13.976,14.787ZM6.758,10.732H12.8A1.614,1.614,0,0,0,14.219,9.9L16.96,4.925a.808.808,0,1,0-1.411-.787L12.8,9.11H7.107L3.871,2.273a.805.805,0,0,0-.73-.462H1.811a.811.811,0,0,0,0,1.622h.811l2.92,6.155L4.447,11.567a1.625,1.625,0,0,0,1.419,2.409h8.921a.811.811,0,1,0,0-1.622H5.866Z" transform="translate(-0.189 -0.189)"/></svg>