<svg xmlns="http://www.w3.org/2000/svg" width="28.629" height="28.629" viewBox="0 0 28.629 28.629"><defs><style>.a{fill:none;}.b{fill:#333;}</style></defs><path class="a" d="M0,0H28.629V28.629H0Z"/><path class="b" d="M11.35,3.386H5.386A2.393,2.393,0,0,0,3,5.772v16.7a2.393,2.393,0,0,0,2.386,2.386H11.35v2.386h2.386V1H11.35Zm0,17.893H5.386l5.964-7.157ZM22.086,3.386H16.122V5.772h5.964V21.279l-5.964-7.157V24.858h5.964a2.393,2.393,0,0,0,2.386-2.386V5.772A2.393,2.393,0,0,0,22.086,3.386Z" transform="translate(0.579 0.193)"/></svg>