<svg xmlns="http://www.w3.org/2000/svg" width="19.464" height="19.464" viewBox="0 0 19.464 19.464"><defs><style>.a{fill:none;}.b{fill:#fff;}</style></defs><path class="a" d="M0,0H19.464V19.464H0Z"/><path class="b" d="M16.6,4H3.622A1.62,1.62,0,0,0,2.008,5.622L2,15.354a1.627,1.627,0,0,0,1.622,1.622H16.6a1.627,1.627,0,0,0,1.622-1.622V5.622A1.627,1.627,0,0,0,16.6,4Zm-.324,3.447L10.54,11.031a.82.82,0,0,1-.86,0L3.946,7.447a.689.689,0,1,1,.73-1.168l5.434,3.4,5.434-3.4a.689.689,0,1,1,.73,1.168Z" transform="translate(-0.378 -0.756)"/></svg>