<svg xmlns="http://www.w3.org/2000/svg" width="17.03" height="17.03" viewBox="0 0 17.03 17.03"><defs><style>.a{fill:#a0a0a0;}</style></defs><path class="a" d="M291.069,508.668l-.214.032Zm0,0" transform="translate(-281.181 -491.749)"/><path class="a" d="M299.442,507.793l-.1.018Zm0,0" transform="translate(-289.384 -490.903)"/><path class="a" d="M277.86,510.34q-.125.014-.25.025Q277.735,510.354,277.86,510.34Zm0,0" transform="translate(-268.376 -493.365)"/><path class="a" d="M286.565,509.738l-.12.015Zm0,0" transform="translate(-276.918 -492.784)"/><path class="a" d="M306.754,506.41l-.09.019Zm0,0" transform="translate(-296.464 -489.566)"/><path class="a" d="M324.557,502.113l-.073.02Zm0,0" transform="translate(-313.692 -485.413)"/><path class="a" d="M319.138,503.543l-.079.021Zm0,0" transform="translate(-308.446 -486.795)"/><path class="a" d="M312.15,505.254l-.084.019Zm0,0" transform="translate(-301.687 -488.449)"/><path class="a" d="M273.615,511.09l-.135.01Zm0,0" transform="translate(-264.384 -494.091)"/><path class="a" d="M17.03,8.515A8.515,8.515,0,1,0,8.515,17.03l.15,0V10.4H6.835V8.267H8.664V6.7A2.561,2.561,0,0,1,11.4,3.889a15.059,15.059,0,0,1,1.64.084v1.9H11.919c-.883,0-1.054.42-1.054,1.035V8.267h2.111L12.7,10.4H10.865v6.3A8.519,8.519,0,0,0,17.03,8.515Zm0,0"/><path class="a" d="M265.157,511.43q-.133.009-.267.013Q265.024,511.438,265.157,511.43Zm0,0" transform="translate(-256.08 -494.419)"/><path class="a" d="M260.645,511.836l-.141,0Zm0,0" transform="translate(-251.839 -494.812)"/></svg>