<svg xmlns="http://www.w3.org/2000/svg" width="28.629" height="28.629" viewBox="0 0 28.629 28.629"><defs><style>.a{fill:none;}.b{fill:#333;}</style></defs><path class="a" d="M0,0H28.629V28.629H0Z"/><path class="b" d="M19.3,3a7.143,7.143,0,0,0-5.368,2.493A7.143,7.143,0,0,0,8.561,3,6.5,6.5,0,0,0,2,9.561c0,4.509,4.056,8.183,10.2,13.766l1.73,1.563,1.73-1.575c6.143-5.571,10.2-9.245,10.2-13.754A6.5,6.5,0,0,0,19.3,3ZM14.048,21.549l-.119.119-.119-.119C8.131,16.408,4.386,13.008,4.386,9.561A4.077,4.077,0,0,1,8.561,5.386,4.664,4.664,0,0,1,12.819,8.2H15.05A4.634,4.634,0,0,1,19.3,5.386a4.077,4.077,0,0,1,4.175,4.175C23.472,13.008,19.726,16.408,14.048,21.549Z" transform="translate(0.386 0.579)"/></svg>