<svg xmlns="http://www.w3.org/2000/svg" width="14.769" height="14.769" viewBox="0 0 14.769 14.769"><defs><style>.a{fill:none;}.b{fill:#e6ba00;}</style></defs><path class="a" d="M0,0H14.769V14.769H0Z"/><path class="b" d="M8.983,13.541a1.228,1.228,0,0,1-1.655-.006l-.068-.062C4.029,10.55,1.919,8.637,2,6.249a3.359,3.359,0,0,1,1.44-2.64,3.566,3.566,0,0,1,4.714.677,3.56,3.56,0,0,1,4.714-.677,3.359,3.359,0,0,1,1.44,2.64c.086,2.388-2.031,4.3-5.261,7.237l-.062.055Z" transform="translate(-0.768 -1.154)"/></svg>