<svg xmlns="http://www.w3.org/2000/svg" width="19.465" height="19.465" viewBox="0 0 19.465 19.465"><defs><style>.a{fill:none;}.b{fill:#fff;}</style></defs><path class="a" d="M0,0H19.465V19.465H0Z"/><path class="b" d="M11.077,3a7.307,7.307,0,0,0-7.51,7.3H2.115a.4.4,0,0,0-.284.689l2.263,2.271a.4.4,0,0,0,.576,0l2.263-2.271a.405.405,0,0,0-.292-.689H5.189a5.676,5.676,0,0,1,5.758-5.677,5.749,5.749,0,0,1,5.6,5.6,5.681,5.681,0,0,1-5.677,5.758,5.592,5.592,0,0,1-3.471-1.2.811.811,0,0,0-1.006,1.273A7.184,7.184,0,0,0,10.866,17.6a7.307,7.307,0,0,0,7.3-7.51A7.385,7.385,0,0,0,11.077,3Zm-.414,4.055a.613.613,0,0,0-.608.608v2.985a.821.821,0,0,0,.4.7l2.53,1.5a.609.609,0,1,0,.624-1.046l-2.336-1.387V7.655a.611.611,0,0,0-.608-.6Z" transform="translate(-0.323 -0.566)"/></svg>