<svg xmlns="http://www.w3.org/2000/svg" width="17.03" height="17.03" viewBox="0 0 17.03 17.03"><defs><style>.a{fill:#a0a0a0;}</style></defs><path class="a" d="M210.26,208.63a1.63,1.63,0,1,1-1.63-1.63A1.63,1.63,0,0,1,210.26,208.63Zm0,0" transform="translate(-200.115 -200.115)"/><path class="a" d="M143.3,136.613a1.619,1.619,0,0,0-.928-.928,2.705,2.705,0,0,0-.908-.168c-.516-.024-.67-.029-1.976-.029s-1.46,0-1.976.028a2.707,2.707,0,0,0-.908.168,1.62,1.62,0,0,0-.928.928,2.706,2.706,0,0,0-.168.908c-.024.516-.029.67-.029,1.976s.005,1.46.029,1.976a2.705,2.705,0,0,0,.168.908,1.619,1.619,0,0,0,.928.928,2.7,2.7,0,0,0,.908.168c.516.024.67.028,1.976.028s1.46,0,1.976-.028a2.7,2.7,0,0,0,.908-.168,1.619,1.619,0,0,0,.928-.928,2.708,2.708,0,0,0,.168-.908c.024-.516.028-.67.028-1.976s0-1.46-.028-1.976A2.7,2.7,0,0,0,143.3,136.613Zm-3.812,5.394A2.511,2.511,0,1,1,142,139.5,2.511,2.511,0,0,1,139.493,142.007Zm2.61-4.534a.587.587,0,1,1,.587-.587A.587.587,0,0,1,142.1,137.473Zm0,0" transform="translate(-130.978 -130.982)"/><path class="a" d="M8.515,0A8.515,8.515,0,1,0,17.03,8.515,8.516,8.516,0,0,0,8.515,0Zm4.86,10.531a3.587,3.587,0,0,1-.227,1.187,2.5,2.5,0,0,1-1.43,1.43,3.59,3.59,0,0,1-1.187.227c-.521.024-.688.029-2.016.029S7.021,13.4,6.5,13.375a3.59,3.59,0,0,1-1.187-.227,2.5,2.5,0,0,1-1.43-1.43,3.586,3.586,0,0,1-.227-1.187c-.024-.522-.03-.688-.03-2.016S3.631,7.02,3.655,6.5a3.588,3.588,0,0,1,.227-1.187,2.5,2.5,0,0,1,1.43-1.43A3.591,3.591,0,0,1,6.5,3.655c.521-.024.688-.029,2.016-.029s1.494.006,2.016.03a3.591,3.591,0,0,1,1.187.227,2.5,2.5,0,0,1,1.43,1.43A3.587,3.587,0,0,1,13.375,6.5c.024.521.029.688.029,2.016S13.4,10.009,13.375,10.531Zm0,0"/></svg>