<svg xmlns="http://www.w3.org/2000/svg" width="16.22" height="16.22" viewBox="0 0 16.22 16.22"><defs><style>.a{fill:#fff;}</style></defs><path class="a" d="M2.811,5.244A.813.813,0,0,0,2,6.055V16.6A1.627,1.627,0,0,0,3.622,18.22H14.165a.811.811,0,0,0,0-1.622H4.433a.813.813,0,0,1-.811-.811V6.055A.813.813,0,0,0,2.811,5.244ZM16.6,2H6.866A1.627,1.627,0,0,0,5.244,3.622v9.732a1.627,1.627,0,0,0,1.622,1.622H16.6a1.627,1.627,0,0,0,1.622-1.622V3.622A1.627,1.627,0,0,0,16.6,2ZM14.976,9.3H8.488a.811.811,0,0,1,0-1.622h6.488a.811.811,0,1,1,0,1.622Zm-3.244,3.244H8.488a.811.811,0,1,1,0-1.622h3.244a.811.811,0,0,1,0,1.622Zm3.244-6.488H8.488a.811.811,0,0,1,0-1.622h6.488a.811.811,0,1,1,0,1.622Z" transform="translate(-2 -2)"/></svg>