<svg xmlns="http://www.w3.org/2000/svg" width="17.03" height="17.03" viewBox="0 0 17.03 17.03"><defs><style>.a{fill:#a0a0a0;}</style></defs><path class="a" d="M8.515,0A8.515,8.515,0,1,0,17.03,8.515,8.516,8.516,0,0,0,8.515,0ZM6.04,12.872H3.967V6.633H6.04ZM5,5.781H4.99a1.081,1.081,0,1,1,.027-2.156A1.081,1.081,0,1,1,5,5.781Zm8.514,7.091H11.444V9.534c0-.839-.3-1.411-1.051-1.411a1.135,1.135,0,0,0-1.064.758,1.42,1.42,0,0,0-.068.506v3.484H7.188s.027-5.654,0-6.239H9.262v.883a2.059,2.059,0,0,1,1.869-1.03c1.364,0,2.387.892,2.387,2.808Zm0,0"/></svg>