<svg xmlns="http://www.w3.org/2000/svg" width="19.465" height="19.465" viewBox="0 0 19.465 19.465"><defs><style>.a{fill:none;}.b{fill:#fff;}</style></defs><path class="a" d="M0,0H19.465V19.465H0Z"/><path class="b" d="M10.3,7.866h3.244a.811.811,0,0,0,0-1.622H10.3a.811.811,0,1,0,0,1.622Zm0,3.244h3.244a.811.811,0,1,0,0-1.622H10.3a.811.811,0,1,0,0,1.622Zm0,3.244h3.244a.811.811,0,1,0,0-1.622H10.3a.811.811,0,1,0,0,1.622ZM6.244,6.244H7.866V7.866H6.244Zm0,3.244H7.866V11.11H6.244Zm0,3.244H7.866v1.622H6.244ZM16.788,3H3.811A.813.813,0,0,0,3,3.811V16.788a.813.813,0,0,0,.811.811H16.788a.813.813,0,0,0,.811-.811V3.811A.813.813,0,0,0,16.788,3Zm-.811,12.977H4.622V4.622H15.977Z" transform="translate(-0.567 -0.567)"/></svg>