<svg xmlns="http://www.w3.org/2000/svg" width="26.246" height="26.246" viewBox="0 0 26.246 26.246"><defs><style>.a{fill:none;}.b{fill:#fff;}</style></defs><path class="a" d="M0,0H26.246V26.246H0Z"/><path class="b" d="M20.5,6.468H18.31a5.468,5.468,0,1,0-10.936,0H5.187A2.194,2.194,0,0,0,3,8.655V21.778a2.194,2.194,0,0,0,2.187,2.187H20.5a2.194,2.194,0,0,0,2.187-2.187V8.655A2.194,2.194,0,0,0,20.5,6.468ZM12.842,3.187a3.276,3.276,0,0,1,3.281,3.281H9.561A3.276,3.276,0,0,1,12.842,3.187ZM20.5,21.778H5.187V8.655H20.5Zm-7.655-8.749A3.276,3.276,0,0,1,9.561,9.749H7.374a5.468,5.468,0,1,0,10.936,0H16.123A3.276,3.276,0,0,1,12.842,13.029Z" transform="translate(0.281 0.094)"/></svg>