<svg xmlns="http://www.w3.org/2000/svg" width="20" height="19" viewBox="0 0 20 19"><defs><style>.a{fill:none;}.b{fill:#fff;}</style></defs><g transform="translate(0.478 -0.464)"><rect class="a" width="20" height="19" transform="translate(-0.478 0.464)"/><rect class="a" width="20" height="19" transform="translate(-0.478 0.464)"/><g transform="translate(1.622 2.433)"><path class="b" d="M8.731,6.812h0a.8.8,0,0,0,0,1.135l1.541,1.541H2.811A.813.813,0,0,0,2,10.3H2a.813.813,0,0,0,.811.811h7.461L8.731,12.651a.8.8,0,0,0,0,1.135h0a.8.8,0,0,0,1.135,0l2.911-2.911a.808.808,0,0,0,0-1.144L9.867,6.812A.8.8,0,0,0,8.731,6.812ZM16.6,15.976H10.921a.813.813,0,0,0-.811.811h0a.813.813,0,0,0,.811.811H16.6a1.627,1.627,0,0,0,1.622-1.622V4.622A1.627,1.627,0,0,0,16.6,3H10.921a.813.813,0,0,0-.811.811h0a.813.813,0,0,0,.811.811H16.6Z" transform="translate(-2 -3)"/></g></g></svg>