<svg width="207" height="72" viewBox="0 0 207 72" fill="none" xmlns="http://www.w3.org/2000/svg">
<g clip-path="url(#clip0)">
<path d="M34.5906 30.47C34.5906 31.43 34.3706 32.34 33.9306 33.2C33.5106 34.04 32.9206 34.8 32.1606 35.48C31.4006 36.14 30.5106 36.7 29.4906 37.16C28.4706 37.62 27.3606 37.93 26.1606 38.09C26.4606 38.99 26.8206 39.92 27.2406 40.88C27.6806 41.82 28.1506 42.73 28.6506 43.61C29.1506 44.49 29.6706 45.3 30.2106 46.04C30.7506 46.78 31.2806 47.39 31.8006 47.87C31.7006 48.07 31.5506 48.27 31.3506 48.47C31.1706 48.67 30.9506 48.85 30.6906 49.01C30.4506 49.19 30.1906 49.33 29.9106 49.43C29.6506 49.55 29.4006 49.61 29.1606 49.61C28.7206 49.61 28.3006 49.4 27.9006 48.98C27.5006 48.56 27.0906 47.9 26.6706 47C26.2706 46.08 25.8406 44.9 25.3806 43.46C24.9406 42 24.4506 40.25 23.9106 38.21C23.6906 38.21 23.4706 38.21 23.2506 38.21C23.0306 38.21 22.8606 38.19 22.7406 38.15C22.6006 38.07 22.4506 37.93 22.2906 37.73C21.7506 38.89 21.2706 39.98 20.8506 41C20.4306 42.02 20.0506 43.01 19.7106 43.97C19.3906 44.91 19.1006 45.83 18.8406 46.73C18.6006 47.61 18.3906 48.51 18.2106 49.43C17.5306 49.27 16.9406 48.98 16.4406 48.56C15.9406 48.14 15.4706 47.55 15.0306 46.79C15.1106 46.61 15.1906 46.44 15.2706 46.28C15.3706 46.1 15.4906 45.86 15.6306 45.56C15.7706 45.24 15.9406 44.84 16.1406 44.36C16.3606 43.88 16.6406 43.24 16.9806 42.44C17.3406 41.64 17.7606 40.66 18.2406 39.5C18.7406 38.34 19.3406 36.93 20.0406 35.27C20.3606 34.53 20.6306 33.88 20.8506 33.32C21.0906 32.76 21.3006 32.23 21.4806 31.73C21.6606 31.21 21.8206 30.7 21.9606 30.2C22.1206 29.68 22.2806 29.09 22.4406 28.43C21.5206 28.75 20.6606 29.11 19.8606 29.51C19.0806 29.89 18.4306 30.3 17.9106 30.74C17.7306 30.62 17.5406 30.44 17.3406 30.2C17.1606 29.96 16.9906 29.7 16.8306 29.42C16.6706 29.12 16.5306 28.82 16.4106 28.52C16.2906 28.22 16.2206 27.95 16.2006 27.71C16.8006 27.31 17.5306 26.94 18.3906 26.6C19.2706 26.26 20.2006 25.97 21.1806 25.73C22.1606 25.47 23.1606 25.27 24.1806 25.13C25.2006 24.99 26.1506 24.92 27.0306 24.92C29.4306 24.92 31.2906 25.42 32.6106 26.42C33.9306 27.4 34.5906 28.75 34.5906 30.47ZM27.2706 27.95C27.1306 28.13 26.9106 28.49 26.6106 29.03C26.3106 29.57 25.9606 30.22 25.5606 30.98C25.1806 31.72 24.7706 32.53 24.3306 33.41C23.9106 34.29 23.5006 35.16 23.1006 36.02C24.6006 36.02 25.9806 35.88 27.2406 35.6C28.5006 35.32 29.5906 34.93 30.5106 34.43C31.4306 33.91 32.1406 33.31 32.6406 32.63C33.1606 31.93 33.4206 31.16 33.4206 30.32C33.4206 29.32 33.0606 28.56 32.3406 28.04C31.6206 27.5 30.5106 27.23 29.0106 27.23C28.6706 27.23 28.3306 27.25 27.9906 27.29C27.6506 27.31 27.2906 27.34 26.9106 27.38L27.2706 27.95ZM44.6788 34.88C44.8788 34.88 45.1088 34.92 45.3688 35C45.6488 35.06 45.8988 35.15 46.1188 35.27C46.3388 35.37 46.5188 35.48 46.6588 35.6C46.8188 35.72 46.8988 35.83 46.8988 35.93C46.4988 36.77 46.1288 37.62 45.7888 38.48C45.4488 39.32 45.1588 40.13 44.9188 40.91C44.6788 41.69 44.4888 42.42 44.3488 43.1C44.2288 43.78 44.1688 44.37 44.1688 44.87C44.1688 45.43 44.2288 45.9 44.3488 46.28C44.4688 46.64 44.6688 46.9 44.9488 47.06C44.7088 47.22 44.3988 47.35 44.0188 47.45C43.6388 47.55 43.2988 47.6 42.9988 47.6C41.9188 47.6 41.3788 46.86 41.3788 45.38C41.3788 44.24 41.7588 42.68 42.5188 40.7C42.1188 41.62 41.6588 42.49 41.1388 43.31C40.6188 44.11 40.0888 44.82 39.5488 45.44C39.0088 46.06 38.4588 46.57 37.8988 46.97C37.3588 47.35 36.8588 47.58 36.3988 47.66C35.6588 47.62 35.0588 47.27 34.5988 46.61C34.1388 45.93 33.9088 45.07 33.9088 44.03C33.9088 42.91 34.1488 41.73 34.6288 40.49C35.1088 39.25 35.7188 38.1 36.4588 37.04C37.2188 35.98 38.0388 35.1 38.9188 34.4C39.7988 33.68 40.6488 33.3 41.4688 33.26C41.6688 33.32 41.8888 33.44 42.1288 33.62C42.3888 33.8 42.6288 34.01 42.8488 34.25C43.0888 34.49 43.2888 34.74 43.4488 35C43.6088 35.24 43.6988 35.45 43.7188 35.63C42.9188 35.75 42.0888 36.14 41.2288 36.8C40.3888 37.46 39.6188 38.26 38.9188 39.2C38.2388 40.12 37.6788 41.11 37.2388 42.17C36.7988 43.23 36.5788 44.22 36.5788 45.14C36.5788 45.52 36.7188 45.76 36.9988 45.86C37.5788 45.74 38.2488 45.25 39.0088 44.39C39.7688 43.51 40.6888 42.16 41.7688 40.34C41.9688 39.98 42.1888 39.58 42.4288 39.14C42.6888 38.7 42.9488 38.24 43.2088 37.76C43.4688 37.28 43.7188 36.8 43.9588 36.32C44.2188 35.82 44.4588 35.34 44.6788 34.88ZM60.1834 42.35C59.7234 43.81 59.2634 45.14 58.8034 46.34C58.3434 47.54 57.8534 48.64 57.3334 49.64C56.8134 50.66 56.2534 51.59 55.6534 52.43C55.0534 53.29 54.3934 54.1 53.6734 54.86C52.7534 55.82 51.8034 56.55 50.8234 57.05C49.8434 57.57 48.8634 57.83 47.8834 57.83C47.3834 57.83 46.8834 57.77 46.3834 57.65C45.9034 57.55 45.4534 57.4 45.0334 57.2C44.5934 57.02 44.2134 56.8 43.8934 56.54C43.5534 56.3 43.3134 56.04 43.1734 55.76C43.1734 55.52 43.3134 55.31 43.5934 55.13C43.8334 55.35 44.0334 55.52 44.1934 55.64C44.3534 55.76 44.5134 55.86 44.6734 55.94C44.8134 56.02 44.9734 56.07 45.1534 56.09C45.3134 56.11 45.5034 56.12 45.7234 56.12C46.8634 56.12 47.9734 55.78 49.0534 55.1C50.1534 54.44 51.1834 53.49 52.1434 52.25C53.1234 51.03 54.0134 49.54 54.8134 47.78C55.6134 46.04 56.2934 44.09 56.8534 41.93C56.5934 42.33 56.2734 42.82 55.8934 43.4C55.5134 43.98 55.0934 44.56 54.6334 45.14C54.1734 45.7 53.6934 46.21 53.1934 46.67C52.7134 47.13 52.2434 47.44 51.7834 47.6C51.4634 47.58 51.1234 47.51 50.7634 47.39C50.4234 47.29 50.0934 47.14 49.7734 46.94C49.4734 46.74 49.2034 46.5 48.9634 46.22C48.7234 45.94 48.5634 45.62 48.4834 45.26C48.4834 44.68 48.5034 44.22 48.5434 43.88C48.5834 43.52 48.6534 43.13 48.7534 42.71C48.9334 41.95 49.1934 41.09 49.5334 40.13C49.8934 39.17 50.3034 38.23 50.7634 37.31C51.2434 36.37 51.7634 35.5 52.3234 34.7C52.9034 33.88 53.5034 33.24 54.1234 32.78C54.2834 32.78 54.4834 32.8 54.7234 32.84C54.9634 32.86 55.2134 32.91 55.4734 32.99C55.7334 33.07 55.9834 33.17 56.2234 33.29C56.4634 33.39 56.6734 33.53 56.8534 33.71C56.6334 33.91 56.1534 34.58 55.4134 35.72C54.6734 36.86 53.8534 38.5 52.9534 40.64C52.8534 40.86 52.7334 41.18 52.5934 41.6C52.4534 42.02 52.3134 42.46 52.1734 42.92C52.0534 43.38 51.9434 43.83 51.8434 44.27C51.7434 44.71 51.6934 45.06 51.6934 45.32C51.6934 45.48 51.7134 45.6 51.7534 45.68C51.8134 45.76 51.8634 45.82 51.9034 45.86C52.2634 45.8 52.7434 45.51 53.3434 44.99C53.9434 44.45 54.6234 43.62 55.3834 42.5C55.8634 41.78 56.3034 41.07 56.7034 40.37C57.1034 39.65 57.4934 38.93 57.8734 38.21C58.2734 37.49 58.6834 36.75 59.1034 35.99C59.5234 35.23 59.9734 34.45 60.4534 33.65C60.7134 33.65 60.9934 33.68 61.2934 33.74C61.5934 33.8 61.8834 33.88 62.1634 33.98C62.4434 34.06 62.6834 34.16 62.8834 34.28C63.1034 34.38 63.2634 34.49 63.3634 34.61C62.7434 35.93 62.1634 37.22 61.6234 38.48C61.0834 39.74 60.6034 41.03 60.1834 42.35ZM64.3611 41.72C64.3611 40.58 64.5911 39.48 65.0511 38.42C65.5311 37.34 66.1511 36.39 66.9111 35.57C67.6911 34.73 68.5711 34.06 69.5511 33.56C70.5511 33.04 71.5811 32.78 72.6411 32.78C73.6811 32.78 74.4811 33.04 75.0411 33.56C75.6011 34.08 75.8811 34.82 75.8811 35.78C75.8811 36.24 75.8111 36.69 75.6711 37.13C75.5511 37.55 75.3811 37.93 75.1611 38.27C74.9611 38.61 74.7211 38.89 74.4411 39.11C74.1611 39.31 73.8811 39.41 73.6011 39.41C73.3611 39.41 73.1111 39.34 72.8511 39.2C72.6111 39.04 72.4111 38.84 72.2511 38.6C73.5911 37.38 74.2611 36.27 74.2611 35.27C74.2611 34.69 74.0311 34.4 73.5711 34.4C73.1711 34.4 72.6711 34.59 72.0711 34.97C71.4711 35.35 70.8911 35.85 70.3311 36.47C69.4711 37.43 68.8111 38.5 68.3511 39.68C67.9111 40.84 67.6911 42.06 67.6911 43.34C67.6911 44.96 68.0511 45.93 68.7711 46.25C69.0711 46.21 69.4211 46.12 69.8211 45.98C70.2211 45.84 70.6511 45.66 71.1111 45.44C71.5711 45.2 72.0411 44.93 72.5211 44.63C73.0211 44.33 73.5011 44.01 73.9611 43.67C74.0411 43.73 74.1111 43.82 74.1711 43.94C74.2311 44.06 74.2611 44.17 74.2611 44.27C73.9211 44.69 73.5311 45.1 73.0911 45.5C72.6511 45.9 72.1911 46.27 71.7111 46.61C71.2311 46.93 70.7611 47.2 70.3011 47.42C69.8611 47.66 69.4711 47.81 69.1311 47.87C68.4711 47.81 67.8511 47.6 67.2711 47.24C66.6911 46.9 66.1811 46.45 65.7411 45.89C65.3211 45.33 64.9811 44.69 64.7211 43.97C64.4811 43.25 64.3611 42.5 64.3611 41.72ZM77.3488 46.49C77.3488 45.79 77.4188 44.97 77.5588 44.03C77.6988 43.07 77.8988 42.05 78.1588 40.97C78.4388 39.89 78.7588 38.76 79.1188 37.58C79.4988 36.4 79.9188 35.22 80.3788 34.04C80.7788 32.98 81.2388 31.91 81.7588 30.83C82.2988 29.75 82.8788 28.69 83.4988 27.65C84.1188 26.61 84.7588 25.62 85.4188 24.68C86.0988 23.74 86.7788 22.88 87.4588 22.1C87.7788 22.1 88.1188 22.14 88.4788 22.22C88.8588 22.3 89.2188 22.41 89.5588 22.55C89.9188 22.67 90.2388 22.82 90.5188 23C90.8188 23.18 91.0588 23.36 91.2388 23.54C89.7388 25.08 88.3888 26.64 87.1888 28.22C85.9888 29.78 85.0388 31.25 84.3388 32.63C83.9588 33.39 83.6088 34.1 83.2888 34.76C82.9888 35.42 82.7088 36.08 82.4488 36.74C82.1888 37.38 81.9488 38.03 81.7288 38.69C81.5288 39.33 81.3388 40.01 81.1588 40.73C84.9988 35.83 87.8488 33.38 89.7088 33.38C90.2288 33.38 90.7888 33.55 91.3888 33.89C91.9888 34.23 92.5188 34.69 92.9788 35.27C92.3588 35.95 91.7188 36.77 91.0588 37.73C90.3988 38.69 89.7888 39.66 89.2288 40.64C88.6888 41.6 88.2388 42.5 87.8788 43.34C87.5388 44.16 87.3688 44.77 87.3688 45.17C87.3688 45.37 87.3988 45.51 87.4588 45.59C87.5188 45.65 87.6488 45.68 87.8488 45.68C88.1488 45.68 88.3888 45.64 88.5688 45.56C88.7488 45.48 88.8588 45.44 88.8988 45.44C88.9988 45.6 89.0588 45.71 89.0788 45.77C89.0988 45.83 89.1088 45.88 89.1088 45.92C89.1088 46 88.9888 46.12 88.7488 46.28C88.5088 46.42 88.2188 46.57 87.8788 46.73C87.5588 46.87 87.2388 47 86.9188 47.12C86.5988 47.24 86.3588 47.3 86.1988 47.3C85.9988 47.3 85.7988 47.24 85.5988 47.12C85.3988 47.02 85.2188 46.88 85.0588 46.7C84.9188 46.52 84.7988 46.32 84.6988 46.1C84.6188 45.88 84.5788 45.65 84.5788 45.41C84.5788 45.11 84.6588 44.67 84.8188 44.09C84.9988 43.49 85.2388 42.8 85.5388 42.02C85.8388 41.22 86.1988 40.35 86.6188 39.41C87.0388 38.47 87.4888 37.51 87.9688 36.53C87.9688 36.45 87.9288 36.41 87.8488 36.41C87.7888 36.41 87.6288 36.49 87.3688 36.65C87.1288 36.81 86.8988 36.97 86.6788 37.13C85.9588 37.67 85.2288 38.34 84.4888 39.14C83.7688 39.92 83.0588 40.78 82.3588 41.72C81.6788 42.66 81.0288 43.66 80.4088 44.72C79.8088 45.76 79.2888 46.81 78.8488 47.87C78.7888 48.01 78.6988 48.14 78.5788 48.26C78.4588 48.38 78.3588 48.44 78.2788 48.44C78.2188 48.44 78.1288 48.37 78.0088 48.23C77.9088 48.09 77.8088 47.91 77.7088 47.69C77.6288 47.49 77.5488 47.28 77.4688 47.06C77.3888 46.84 77.3488 46.65 77.3488 46.49ZM104.757 42.35C104.297 43.81 103.837 45.14 103.377 46.34C102.917 47.54 102.427 48.64 101.907 49.64C101.387 50.66 100.827 51.59 100.227 52.43C99.6268 53.29 98.9668 54.1 98.2468 54.86C97.3268 55.82 96.3768 56.55 95.3968 57.05C94.4168 57.57 93.4368 57.83 92.4568 57.83C91.9568 57.83 91.4568 57.77 90.9568 57.65C90.4768 57.55 90.0268 57.4 89.6068 57.2C89.1668 57.02 88.7868 56.8 88.4668 56.54C88.1268 56.3 87.8868 56.04 87.7468 55.76C87.7468 55.52 87.8868 55.31 88.1668 55.13C88.4068 55.35 88.6068 55.52 88.7668 55.64C88.9268 55.76 89.0868 55.86 89.2468 55.94C89.3868 56.02 89.5468 56.07 89.7268 56.09C89.8868 56.11 90.0768 56.12 90.2968 56.12C91.4368 56.12 92.5468 55.78 93.6268 55.1C94.7268 54.44 95.7568 53.49 96.7168 52.25C97.6968 51.03 98.5868 49.54 99.3868 47.78C100.187 46.04 100.867 44.09 101.427 41.93C101.167 42.33 100.847 42.82 100.467 43.4C100.087 43.98 99.6668 44.56 99.2068 45.14C98.7468 45.7 98.2668 46.21 97.7668 46.67C97.2868 47.13 96.8168 47.44 96.3568 47.6C96.0368 47.58 95.6968 47.51 95.3368 47.39C94.9968 47.29 94.6668 47.14 94.3468 46.94C94.0468 46.74 93.7768 46.5 93.5368 46.22C93.2968 45.94 93.1368 45.62 93.0568 45.26C93.0568 44.68 93.0768 44.22 93.1168 43.88C93.1568 43.52 93.2268 43.13 93.3268 42.71C93.5068 41.95 93.7668 41.09 94.1068 40.13C94.4668 39.17 94.8768 38.23 95.3368 37.31C95.8168 36.37 96.3368 35.5 96.8968 34.7C97.4768 33.88 98.0768 33.24 98.6968 32.78C98.8568 32.78 99.0568 32.8 99.2968 32.84C99.5368 32.86 99.7868 32.91 100.047 32.99C100.307 33.07 100.557 33.17 100.797 33.29C101.037 33.39 101.247 33.53 101.427 33.71C101.207 33.91 100.727 34.58 99.9868 35.72C99.2468 36.86 98.4268 38.5 97.5268 40.64C97.4268 40.86 97.3068 41.18 97.1668 41.6C97.0268 42.02 96.8868 42.46 96.7468 42.92C96.6268 43.38 96.5168 43.83 96.4168 44.27C96.3168 44.71 96.2668 45.06 96.2668 45.32C96.2668 45.48 96.2868 45.6 96.3268 45.68C96.3868 45.76 96.4368 45.82 96.4768 45.86C96.8368 45.8 97.3168 45.51 97.9168 44.99C98.5168 44.45 99.1968 43.62 99.9568 42.5C100.437 41.78 100.877 41.07 101.277 40.37C101.677 39.65 102.067 38.93 102.447 38.21C102.847 37.49 103.257 36.75 103.677 35.99C104.097 35.23 104.547 34.45 105.027 33.65C105.287 33.65 105.567 33.68 105.867 33.74C106.167 33.8 106.457 33.88 106.737 33.98C107.017 34.06 107.257 34.16 107.457 34.28C107.677 34.38 107.837 34.49 107.937 34.61C107.317 35.93 106.737 37.22 106.197 38.48C105.657 39.74 105.177 41.03 104.757 42.35ZM128.607 30.47C128.607 31.71 128.267 32.82 127.587 33.8C126.907 34.76 125.977 35.56 124.797 36.2C125.557 36.72 126.157 37.36 126.597 38.12C127.057 38.86 127.287 39.68 127.287 40.58C127.287 41.66 126.957 42.73 126.297 43.79C125.657 44.83 124.797 45.76 123.717 46.58C122.637 47.38 121.407 48.03 120.027 48.53C118.647 49.03 117.237 49.28 115.797 49.28C114.237 49.28 112.867 48.98 111.687 48.38C110.527 47.8 109.617 46.97 108.957 45.89C109.157 45.29 109.417 44.55 109.737 43.67C110.077 42.77 110.447 41.83 110.847 40.85C111.247 39.85 111.647 38.86 112.047 37.88C112.467 36.9 112.857 36.02 113.217 35.24C113.977 33.54 114.657 32.13 115.257 31.01C115.857 29.89 116.407 29 116.907 28.34C115.807 28.68 114.807 29.07 113.907 29.51C113.007 29.93 112.347 30.34 111.927 30.74C111.747 30.62 111.557 30.44 111.357 30.2C111.177 29.96 110.997 29.7 110.817 29.42C110.657 29.12 110.517 28.82 110.397 28.52C110.297 28.22 110.237 27.95 110.217 27.71C110.737 27.35 111.407 27.01 112.227 26.69C113.067 26.35 113.977 26.06 114.957 25.82C115.937 25.58 116.937 25.39 117.957 25.25C118.997 25.11 119.987 25.04 120.927 25.04C123.327 25.04 125.207 25.52 126.567 26.48C127.927 27.44 128.607 28.77 128.607 30.47ZM117.177 37.64C116.797 37.46 116.447 37.19 116.127 36.83C115.667 37.85 115.227 38.85 114.807 39.83C114.407 40.81 114.047 41.72 113.727 42.56C113.407 43.4 113.147 44.13 112.947 44.75C112.747 45.37 112.637 45.82 112.617 46.1C112.897 46.26 113.227 46.38 113.607 46.46C114.007 46.54 114.497 46.58 115.077 46.58C116.437 46.58 117.737 46.39 118.977 46.01C120.217 45.63 121.307 45.12 122.247 44.48C123.187 43.82 123.937 43.07 124.497 42.23C125.057 41.39 125.337 40.51 125.337 39.59C125.337 38.27 124.767 37.32 123.627 36.74C122.067 37.38 120.307 37.7 118.347 37.7C118.067 37.7 117.847 37.7 117.687 37.7C117.547 37.7 117.377 37.68 117.177 37.64ZM122.997 27.23C122.577 27.23 122.127 27.26 121.647 27.32C121.187 27.36 120.697 27.43 120.177 27.53C120.257 27.61 120.317 27.7 120.357 27.8C120.417 27.88 120.467 27.97 120.507 28.07C120.327 28.31 120.107 28.66 119.847 29.12C119.587 29.58 119.297 30.12 118.977 30.74C118.657 31.34 118.317 32.01 117.957 32.75C117.617 33.49 117.267 34.25 116.907 35.03C117.247 34.95 117.657 34.89 118.137 34.85C118.637 34.79 119.127 34.76 119.607 34.76C119.867 34.76 120.117 34.77 120.357 34.79C120.617 34.81 120.867 34.84 121.107 34.88C122.067 34.72 122.927 34.49 123.687 34.19C124.467 33.87 125.137 33.51 125.697 33.11C126.257 32.69 126.687 32.23 126.987 31.73C127.287 31.23 127.437 30.7 127.437 30.14C127.437 29.18 127.057 28.46 126.297 27.98C125.537 27.48 124.437 27.23 122.997 27.23ZM140.573 34.58C140.493 35.82 140.273 36.89 139.913 37.79C139.553 38.67 139.033 39.45 138.353 40.13C137.693 40.79 136.883 41.39 135.923 41.93C134.963 42.47 133.843 42.99 132.563 43.49C132.563 43.61 132.553 43.74 132.533 43.88C132.533 44 132.533 44.13 132.533 44.27C132.533 44.53 132.553 44.8 132.593 45.08C132.633 45.36 132.703 45.62 132.803 45.86C132.903 46.1 133.043 46.3 133.223 46.46C133.403 46.6 133.633 46.67 133.913 46.67C134.453 46.67 134.983 46.55 135.503 46.31C136.023 46.07 136.513 45.78 136.973 45.44C137.453 45.08 137.893 44.7 138.293 44.3C138.713 43.88 139.083 43.5 139.403 43.16C139.603 43.34 139.773 43.51 139.913 43.67C139.013 44.87 138.023 45.87 136.943 46.67C135.883 47.45 134.873 47.95 133.913 48.17C132.533 48.01 131.453 47.51 130.673 46.67C129.913 45.81 129.533 44.78 129.533 43.58C129.533 42.76 129.643 41.93 129.863 41.09C130.103 40.23 130.423 39.41 130.823 38.63C131.243 37.83 131.723 37.08 132.263 36.38C132.823 35.68 133.413 35.07 134.033 34.55C134.673 34.03 135.323 33.62 135.983 33.32C136.663 33.02 137.333 32.87 137.993 32.87C138.913 32.99 139.773 33.56 140.573 34.58ZM138.503 35.57C137.963 35.65 137.403 35.87 136.823 36.23C136.243 36.59 135.693 37.07 135.173 37.67C134.673 38.27 134.213 38.97 133.793 39.77C133.373 40.57 133.043 41.43 132.803 42.35C134.403 41.55 135.733 40.57 136.793 39.41C137.853 38.23 138.423 36.95 138.503 35.57ZM152.912 34.88C153.112 34.88 153.342 34.92 153.602 35C153.882 35.06 154.132 35.15 154.352 35.27C154.572 35.37 154.752 35.48 154.892 35.6C155.052 35.72 155.132 35.83 155.132 35.93C154.732 36.77 154.362 37.62 154.022 38.48C153.682 39.32 153.392 40.13 153.152 40.91C152.912 41.69 152.722 42.42 152.582 43.1C152.462 43.78 152.402 44.37 152.402 44.87C152.402 45.43 152.462 45.9 152.582 46.28C152.702 46.64 152.902 46.9 153.182 47.06C152.942 47.22 152.632 47.35 152.252 47.45C151.872 47.55 151.532 47.6 151.232 47.6C150.152 47.6 149.612 46.86 149.612 45.38C149.612 44.24 149.992 42.68 150.752 40.7C150.352 41.62 149.892 42.49 149.372 43.31C148.852 44.11 148.322 44.82 147.782 45.44C147.242 46.06 146.692 46.57 146.132 46.97C145.592 47.35 145.092 47.58 144.632 47.66C143.892 47.62 143.292 47.27 142.832 46.61C142.372 45.93 142.142 45.07 142.142 44.03C142.142 42.91 142.382 41.73 142.862 40.49C143.342 39.25 143.952 38.1 144.692 37.04C145.452 35.98 146.272 35.1 147.152 34.4C148.032 33.68 148.882 33.3 149.702 33.26C149.902 33.32 150.122 33.44 150.362 33.62C150.622 33.8 150.862 34.01 151.082 34.25C151.322 34.49 151.522 34.74 151.682 35C151.842 35.24 151.932 35.45 151.952 35.63C151.152 35.75 150.322 36.14 149.462 36.8C148.622 37.46 147.852 38.26 147.152 39.2C146.472 40.12 145.912 41.11 145.472 42.17C145.032 43.23 144.812 44.22 144.812 45.14C144.812 45.52 144.952 45.76 145.232 45.86C145.812 45.74 146.482 45.25 147.242 44.39C148.002 43.51 148.922 42.16 150.002 40.34C150.202 39.98 150.422 39.58 150.662 39.14C150.922 38.7 151.182 38.24 151.442 37.76C151.702 37.28 151.952 36.8 152.192 36.32C152.452 35.82 152.692 35.34 152.912 34.88ZM165.297 46.34C164.917 46.02 164.657 45.62 164.517 45.14C164.397 44.66 164.337 44.25 164.337 43.91C164.337 43.49 164.387 43.13 164.487 42.83C164.407 42.83 164.227 42.99 163.947 43.31C163.667 43.63 163.357 44.01 163.017 44.45C162.697 44.89 162.377 45.32 162.057 45.74C161.737 46.16 161.497 46.47 161.337 46.67C161.077 46.95 160.827 47.17 160.587 47.33C160.367 47.49 160.187 47.58 160.047 47.6C159.727 47.58 159.387 47.51 159.027 47.39C158.687 47.29 158.357 47.14 158.037 46.94C157.737 46.74 157.467 46.5 157.227 46.22C157.007 45.94 156.857 45.62 156.777 45.26C156.777 44.7 156.787 44.24 156.807 43.88C156.847 43.52 156.917 43.13 157.017 42.71C157.197 41.95 157.457 41.09 157.797 40.13C158.157 39.17 158.567 38.23 159.027 37.31C159.487 36.37 159.997 35.5 160.557 34.7C161.137 33.88 161.747 33.24 162.387 32.78C162.567 32.78 162.777 32.8 163.017 32.84C163.257 32.86 163.497 32.91 163.737 32.99C163.997 33.07 164.237 33.17 164.457 33.29C164.697 33.39 164.897 33.53 165.057 33.71C164.877 33.91 164.417 34.58 163.677 35.72C162.957 36.86 162.147 38.5 161.247 40.64C161.147 40.86 161.027 41.18 160.887 41.6C160.747 42.02 160.607 42.46 160.467 42.92C160.327 43.38 160.207 43.83 160.107 44.27C160.027 44.71 159.987 45.06 159.987 45.32C159.987 45.48 160.007 45.6 160.047 45.68C160.107 45.76 160.157 45.82 160.197 45.86C160.497 45.74 160.877 45.41 161.337 44.87C161.797 44.33 162.437 43.5 163.257 42.38C163.457 42.1 163.687 41.78 163.947 41.42C164.227 41.06 164.507 40.68 164.787 40.28C165.067 39.86 165.327 39.43 165.567 38.99C165.827 38.55 166.037 38.11 166.197 37.67C166.277 37.43 166.377 37.15 166.497 36.83C166.637 36.49 166.797 36.14 166.977 35.78C167.177 35.42 167.397 35.06 167.637 34.7C167.897 34.32 168.197 33.97 168.537 33.65C168.797 33.65 169.077 33.68 169.377 33.74C169.677 33.8 169.957 33.88 170.217 33.98C170.497 34.06 170.737 34.16 170.937 34.28C171.137 34.38 171.287 34.49 171.387 34.61C171.027 35.49 170.627 36.36 170.187 37.22C169.747 38.08 169.337 38.93 168.957 39.77C168.577 40.59 168.257 41.41 167.997 42.23C167.737 43.05 167.607 43.85 167.607 44.63C167.607 45.05 167.637 45.42 167.697 45.74C167.777 46.04 167.857 46.3 167.937 46.52C168.017 46.72 168.087 46.89 168.147 47.03C168.227 47.17 168.267 47.29 168.267 47.39C168.267 47.41 168.247 47.44 168.207 47.48C168.187 47.5 168.167 47.51 168.147 47.51C168.007 47.51 167.827 47.48 167.607 47.42C167.387 47.36 167.137 47.27 166.857 47.15C166.597 47.05 166.327 46.93 166.047 46.79C165.787 46.65 165.537 46.5 165.297 46.34ZM174.214 35.51C174.114 35.39 174.024 35.14 173.944 34.76C173.864 34.36 173.824 34.02 173.824 33.74C174.344 33.78 174.844 33.82 175.324 33.86C175.804 33.88 176.244 33.9 176.644 33.92C176.944 33.32 177.264 32.73 177.604 32.15C177.964 31.55 178.304 31.01 178.624 30.53C178.964 30.03 179.274 29.61 179.554 29.27C179.854 28.93 180.084 28.71 180.244 28.61C180.444 28.61 180.694 28.65 180.994 28.73C181.314 28.79 181.634 28.88 181.954 29C182.274 29.1 182.564 29.21 182.824 29.33C183.084 29.45 183.264 29.57 183.364 29.69C182.764 30.45 182.244 31.16 181.804 31.82C181.384 32.46 180.924 33.2 180.424 34.04C180.824 34.04 181.224 34.03 181.624 34.01C182.044 33.99 182.464 33.96 182.884 33.92C182.984 34.02 183.064 34.15 183.124 34.31C183.184 34.45 183.214 34.6 183.214 34.76C182.234 35.12 181.044 35.32 179.644 35.36C179.144 36.32 178.694 37.28 178.294 38.24C177.914 39.18 177.584 40.09 177.304 40.97C177.044 41.85 176.834 42.68 176.674 43.46C176.534 44.24 176.464 44.94 176.464 45.56C176.464 46.44 176.794 46.93 177.454 47.03C178.054 46.95 178.624 46.8 179.164 46.58C179.704 46.36 180.184 46.08 180.604 45.74C180.724 45.92 180.794 46.07 180.814 46.19C180.694 46.37 180.484 46.58 180.184 46.82C179.904 47.06 179.594 47.29 179.254 47.51C178.914 47.75 178.584 47.95 178.264 48.11C177.944 48.27 177.704 48.36 177.544 48.38C177.044 48.36 176.544 48.25 176.044 48.05C175.544 47.85 175.084 47.6 174.664 47.3C174.264 47 173.934 46.67 173.674 46.31C173.414 45.93 173.284 45.56 173.284 45.2C173.284 44.72 173.344 44.12 173.464 43.4C173.604 42.66 173.794 41.86 174.034 41C174.274 40.14 174.554 39.24 174.874 38.3C175.194 37.36 175.544 36.43 175.924 35.51H174.214ZM194.871 42.35C194.411 43.81 193.951 45.14 193.491 46.34C193.031 47.54 192.541 48.64 192.021 49.64C191.501 50.66 190.941 51.59 190.341 52.43C189.741 53.29 189.081 54.1 188.361 54.86C187.441 55.82 186.491 56.55 185.511 57.05C184.531 57.57 183.551 57.83 182.571 57.83C182.071 57.83 181.571 57.77 181.071 57.65C180.591 57.55 180.141 57.4 179.721 57.2C179.281 57.02 178.901 56.8 178.581 56.54C178.241 56.3 178.001 56.04 177.861 55.76C177.861 55.52 178.001 55.31 178.281 55.13C178.521 55.35 178.721 55.52 178.881 55.64C179.041 55.76 179.201 55.86 179.361 55.94C179.501 56.02 179.661 56.07 179.841 56.09C180.001 56.11 180.191 56.12 180.411 56.12C181.551 56.12 182.661 55.78 183.741 55.1C184.841 54.44 185.871 53.49 186.831 52.25C187.811 51.03 188.701 49.54 189.501 47.78C190.301 46.04 190.981 44.09 191.541 41.93C191.281 42.33 190.961 42.82 190.581 43.4C190.201 43.98 189.781 44.56 189.321 45.14C188.861 45.7 188.381 46.21 187.881 46.67C187.401 47.13 186.931 47.44 186.471 47.6C186.151 47.58 185.811 47.51 185.451 47.39C185.111 47.29 184.781 47.14 184.461 46.94C184.161 46.74 183.891 46.5 183.651 46.22C183.411 45.94 183.251 45.62 183.171 45.26C183.171 44.68 183.191 44.22 183.231 43.88C183.271 43.52 183.341 43.13 183.441 42.71C183.621 41.95 183.881 41.09 184.221 40.13C184.581 39.17 184.991 38.23 185.451 37.31C185.931 36.37 186.451 35.5 187.011 34.7C187.591 33.88 188.191 33.24 188.811 32.78C188.971 32.78 189.171 32.8 189.411 32.84C189.651 32.86 189.901 32.91 190.161 32.99C190.421 33.07 190.671 33.17 190.911 33.29C191.151 33.39 191.361 33.53 191.541 33.71C191.321 33.91 190.841 34.58 190.101 35.72C189.361 36.86 188.541 38.5 187.641 40.64C187.541 40.86 187.421 41.18 187.281 41.6C187.141 42.02 187.001 42.46 186.861 42.92C186.741 43.38 186.631 43.83 186.531 44.27C186.431 44.71 186.381 45.06 186.381 45.32C186.381 45.48 186.401 45.6 186.441 45.68C186.501 45.76 186.551 45.82 186.591 45.86C186.951 45.8 187.431 45.51 188.031 44.99C188.631 44.45 189.311 43.62 190.071 42.5C190.551 41.78 190.991 41.07 191.391 40.37C191.791 39.65 192.181 38.93 192.561 38.21C192.961 37.49 193.371 36.75 193.791 35.99C194.211 35.23 194.661 34.45 195.141 33.65C195.401 33.65 195.681 33.68 195.981 33.74C196.281 33.8 196.571 33.88 196.851 33.98C197.131 34.06 197.371 34.16 197.571 34.28C197.791 34.38 197.951 34.49 198.051 34.61C197.431 35.93 196.851 37.22 196.311 38.48C195.771 39.74 195.291 41.03 194.871 42.35Z" fill="#208F96"/>
<path d="M22.7054 58.953C22.8094 59.3083 22.922 59.7113 23.0434 60.162C23.1734 60.604 23.3077 61.0633 23.4464 61.54C23.5937 62.0167 23.741 62.4933 23.8884 62.97C24.0357 63.4467 24.1787 63.8887 24.3174 64.296C24.43 63.854 24.5427 63.373 24.6554 62.853C24.7767 62.333 24.8894 61.7957 24.9934 61.241C25.0974 60.6863 25.197 60.136 25.2924 59.59C25.3964 59.0353 25.4917 58.5023 25.5784 57.991H27.6844C27.381 59.499 27.03 61.0287 26.6314 62.58C26.2414 64.1313 25.8167 65.6047 25.3574 67H23.4984C23.195 66.168 22.9004 65.297 22.6144 64.387C22.3284 63.4683 22.0467 62.5497 21.7694 61.631C21.492 62.5497 21.2147 63.4683 20.9374 64.387C20.66 65.297 20.3697 66.168 20.0664 67H18.2074C17.748 65.6047 17.319 64.1313 16.9204 62.58C16.5304 61.0287 16.1837 59.499 15.8804 57.991H18.0774C18.164 58.5023 18.2594 59.0353 18.3634 59.59C18.4674 60.136 18.5757 60.6863 18.6884 61.241C18.801 61.7957 18.9137 62.333 19.0264 62.853C19.1477 63.373 19.269 63.854 19.3904 64.296C19.5464 63.8713 19.698 63.4207 19.8454 62.944C19.9927 62.4673 20.1357 61.9907 20.2744 61.514C20.413 61.0373 20.5387 60.578 20.6514 60.136C20.7727 59.694 20.881 59.2997 20.9764 58.953H22.7054ZM33.2286 62.489C33.2286 62.931 33.2806 63.3297 33.3846 63.685C33.4972 64.0403 33.6532 64.348 33.8526 64.608C34.0606 64.8593 34.3119 65.0543 34.6066 65.193C34.9012 65.3317 35.2392 65.401 35.6206 65.401C35.9932 65.401 36.3269 65.3317 36.6216 65.193C36.9249 65.0543 37.1762 64.8593 37.3756 64.608C37.5836 64.348 37.7396 64.0403 37.8436 63.685C37.9562 63.3297 38.0126 62.931 38.0126 62.489C38.0126 62.047 37.9562 61.6483 37.8436 61.293C37.7396 60.929 37.5836 60.6213 37.3756 60.37C37.1762 60.11 36.9249 59.9107 36.6216 59.772C36.3269 59.6333 35.9932 59.564 35.6206 59.564C35.2392 59.564 34.9012 59.6377 34.6066 59.785C34.3119 59.9237 34.0606 60.123 33.8526 60.383C33.6532 60.6343 33.4972 60.942 33.3846 61.306C33.2806 61.6613 33.2286 62.0557 33.2286 62.489ZM40.1056 62.489C40.1056 63.2603 39.9886 63.9407 39.7546 64.53C39.5292 65.1107 39.2172 65.6003 38.8186 65.999C38.4199 66.389 37.9432 66.6837 37.3886 66.883C36.8426 67.0823 36.2532 67.182 35.6206 67.182C35.0052 67.182 34.4246 67.0823 33.8786 66.883C33.3326 66.6837 32.8559 66.389 32.4486 65.999C32.0412 65.6003 31.7206 65.1107 31.4866 64.53C31.2526 63.9407 31.1356 63.2603 31.1356 62.489C31.1356 61.7177 31.2569 61.0417 31.4996 60.461C31.7422 59.8717 32.0672 59.3777 32.4746 58.979C32.8906 58.5803 33.3672 58.2813 33.9046 58.082C34.4506 57.8827 35.0226 57.783 35.6206 57.783C36.2359 57.783 36.8166 57.8827 37.3626 58.082C37.9086 58.2813 38.3852 58.5803 38.7926 58.979C39.1999 59.3777 39.5206 59.8717 39.7546 60.461C39.9886 61.0417 40.1056 61.7177 40.1056 62.489ZM47.1001 57.887C48.4521 57.887 49.4877 58.1297 50.2071 58.615C50.9264 59.0917 51.2861 59.837 51.2861 60.851C51.2861 61.4837 51.1387 61.9993 50.8441 62.398C50.5581 62.788 50.1421 63.0957 49.5961 63.321C49.7781 63.5463 49.9687 63.8063 50.1681 64.101C50.3674 64.387 50.5624 64.6903 50.7531 65.011C50.9524 65.323 51.1431 65.6523 51.3251 65.999C51.5071 66.337 51.6761 66.6707 51.8321 67H49.5571C49.3924 66.7053 49.2234 66.4063 49.0501 66.103C48.8854 65.7997 48.7121 65.505 48.5301 65.219C48.3567 64.933 48.1834 64.6643 48.0101 64.413C47.8367 64.153 47.6634 63.919 47.4901 63.711H46.4891V67H44.4611V58.121C44.9031 58.0343 45.3581 57.9737 45.8261 57.939C46.3027 57.9043 46.7274 57.887 47.1001 57.887ZM47.2171 59.616C47.0697 59.616 46.9354 59.6203 46.8141 59.629C46.7014 59.6377 46.5931 59.6463 46.4891 59.655V62.099H47.0611C47.8237 62.099 48.3697 62.0037 48.6991 61.813C49.0284 61.6223 49.1931 61.2973 49.1931 60.838C49.1931 60.396 49.0241 60.084 48.6861 59.902C48.3567 59.7113 47.8671 59.616 47.2171 59.616ZM61.816 65.258V67H55.797V57.991H57.825V65.258H61.816ZM67.8152 65.349C67.9105 65.3577 68.0188 65.3663 68.1402 65.375C68.2702 65.375 68.4218 65.375 68.5952 65.375C69.6092 65.375 70.3588 65.1193 70.8442 64.608C71.3382 64.0967 71.5852 63.3903 71.5852 62.489C71.5852 61.5443 71.3512 60.8293 70.8832 60.344C70.4152 59.8587 69.6742 59.616 68.6602 59.616C68.5215 59.616 68.3785 59.6203 68.2312 59.629C68.0838 59.629 67.9452 59.6377 67.8152 59.655V65.349ZM73.6782 62.489C73.6782 63.269 73.5568 63.9493 73.3142 64.53C73.0715 65.1107 72.7248 65.5917 72.2742 65.973C71.8322 66.3543 71.2905 66.6403 70.6492 66.831C70.0078 67.0217 69.2885 67.117 68.4912 67.117C68.1272 67.117 67.7025 67.0997 67.2172 67.065C66.7318 67.039 66.2552 66.9783 65.7872 66.883V58.108C66.2552 58.0213 66.7405 57.965 67.2432 57.939C67.7545 57.9043 68.1922 57.887 68.5562 57.887C69.3275 57.887 70.0252 57.9737 70.6492 58.147C71.2818 58.3203 71.8235 58.5933 72.2742 58.966C72.7248 59.3387 73.0715 59.8153 73.3142 60.396C73.5568 60.9767 73.6782 61.6743 73.6782 62.489Z" fill="#9CA84A"/>
</g>
<defs>
<clipPath id="clip0">
<rect width="207" height="72" fill="white"/>
</clipPath>
</defs>
</svg>
