<svg xmlns="http://www.w3.org/2000/svg" width="130.259" height="130.259" viewBox="0 0 130.259 130.259"><defs><style>.a{opacity:0.5;}.b,.c{fill:none;}.c{opacity:0.87;}.d{fill:#e6ba00;}</style></defs><g class="a"><g transform="translate(0 0)"><path class="b" d="M0,0H130.259V130.259H0Z"/><path class="c" d="M0,0H130.259V130.259H0Z"/></g><path class="d" d="M79.984,38.992H74.557V28.137a27.137,27.137,0,1,0-54.274,0V38.992H14.855A10.887,10.887,0,0,0,4,49.847v54.274a10.887,10.887,0,0,0,10.855,10.855H79.984a10.887,10.887,0,0,0,10.855-10.855V49.847A10.887,10.887,0,0,0,79.984,38.992ZM31.137,28.137a16.282,16.282,0,0,1,32.565,0V38.992H31.137Zm48.847,75.984H14.855V49.847H79.984ZM47.42,87.839A10.855,10.855,0,1,0,36.565,76.984,10.887,10.887,0,0,0,47.42,87.839Z" transform="translate(17.71 4.427)"/></g></svg>