<svg xmlns="http://www.w3.org/2000/svg" width="17.03" height="17.03" viewBox="0 0 17.03 17.03"><defs><style>.a{fill:#a0a0a0;}</style></defs><path class="a" d="M8.515,0A8.515,8.515,0,1,0,17.03,8.515,8.516,8.516,0,0,0,8.515,0ZM12.4,6.639q.006.126.006.253a5.523,5.523,0,0,1-5.561,5.561h0a5.532,5.532,0,0,1-3-.878,3.975,3.975,0,0,0,.466.027,3.921,3.921,0,0,0,2.427-.837A1.957,1.957,0,0,1,4.92,9.407,1.948,1.948,0,0,0,5.8,9.374,1.955,1.955,0,0,1,4.234,7.458c0-.009,0-.017,0-.025a1.941,1.941,0,0,0,.885.244,1.956,1.956,0,0,1-.605-2.609A5.549,5.549,0,0,0,8.543,7.11a1.955,1.955,0,0,1,3.33-1.782,3.92,3.92,0,0,0,1.241-.474,1.962,1.962,0,0,1-.859,1.081,3.9,3.9,0,0,0,1.122-.308A3.972,3.972,0,0,1,12.4,6.639Zm0,0"/></svg>