<svg width="230" height="177" viewBox="0 0 230 177" fill="none" xmlns="http://www.w3.org/2000/svg">
<g filter="url(#filter0_i)">
<path fill-rule="evenodd" clip-rule="evenodd" d="M85.1412 9.59291L91 0L96.8588 9.59291L123.55 53.2967L133.141 37.5929L139 28L144.859 37.5929L223.893 167L230 177H218.282H59.7175H48L54.1074 167L65.1007 149H11.7175H0L6.10738 139L85.1412 9.59291ZM76.8182 149L65.8249 167H212.175L139 47.1858L129.409 62.8896L130.856 65.2591L133.653 60.6453L139.5 51L145.347 60.6453L201.938 154L208 164H196.306H82.6939H71L77.062 154L80.0929 149H76.8182ZM123.55 72.4825L125.019 74.8878L123.987 76.5912L122.519 74.1706L123.55 72.4825ZM116.682 64.5419L97.3469 32.6453L91.5 23L85.653 32.6453L29.0619 126L23 136H34.6939H73.0403L71.2081 139H17.8249L91 19.1858L117.692 62.8896L116.682 64.5419ZM79.1477 126H40.7558L91.5 42.2907L110.814 74.1512L79.1477 126ZM90.8652 126L116.651 83.7799L118.14 86.2366L94.0354 126H90.8652ZM84.7578 136L82.9256 139H86.1549L87.9734 136H84.7578ZM99.6673 136L97.8488 139H164.175L130.888 84.4971L129.834 86.2366L153.938 126L160 136H148.306H99.6673ZM123.987 95.8819L105.729 126H142.244L123.987 95.8819ZM170.282 149H91.7868L88.7558 154H190.244L139.5 70.2907L136.725 74.8684L175.893 139L182 149H170.282Z" fill="#887E28" fill-opacity="0.75"/>
</g>
<defs>
<filter id="filter0_i" x="0" y="0" width="230" height="181" filterUnits="userSpaceOnUse" color-interpolation-filters="sRGB">
<feFlood flood-opacity="0" result="BackgroundImageFix"/>
<feBlend mode="normal" in="SourceGraphic" in2="BackgroundImageFix" result="shape"/>
<feColorMatrix in="SourceAlpha" type="matrix" values="0 0 0 0 0 0 0 0 0 0 0 0 0 0 0 0 0 0 127 0" result="hardAlpha"/>
<feOffset dy="10"/>
<feGaussianBlur stdDeviation="2"/>
<feComposite in2="hardAlpha" operator="arithmetic" k2="-1" k3="1"/>
<feColorMatrix type="matrix" values="0 0 0 0 0 0 0 0 0 0 0 0 0 0 0 0 0 0 0.25 0"/>
<feBlend mode="normal" in2="shape" result="effect1_innerShadow"/>
</filter>
</defs>
</svg>
